PathFileType	4	(X/Y/Z)	/Users/visionmauri/Downloads/Videos/OAW10-top_Sports2D/OAW10-top_Sports2D_px_person00.trc
DataRate	CameraRate	NumFrames	NumMarkers	Units	OrigDataRate	OrigDataStartFrame	OrigNumFrames
25.0	25.0	13	22	m	25.0	657	1754
Frame#	Time	Hip			RHip			RKnee			RAnkle			RBigToe			RSmallToe			RHeel			LHip			LKnee			LAnkle			LBigToe			LSmallToe			LHeel			Neck			Head			Nose			RShoulder			RElbow			RWrist			LShoulder			LElbow			LWrist			
		X1	Y1	Z1	X2	Y2	Z2	X3	Y3	Z3	X4	Y4	Z4	X5	Y5	Z5	X6	Y6	Z6	X7	Y7	Z7	X8	Y8	Z8	X9	Y9	Z9	X10	Y10	Z10	X11	Y11	Z11	X12	Y12	Z12	X13	Y13	Z13	X14	Y14	Z14	X15	Y15	Z15	X16	Y16	Z16	X17	Y17	Z17	X18	Y18	Z18	X19	Y19	Z19	X20	Y20	Z20	X21	Y21	Z21	X22	Y22	Z22
657	26.294991443240157	521.4977093178442	479.2749919382194	0.0	534.2523173953541	482.5505445386062	0.0	530.5813444138869	539.7036685370477	0.0	530.8321628488225	600.1640576950715	0.0	526.3737913913211	613.5203382056663	0.0	538.5030964810629	616.0321342936267	0.0	529.9288718617976	611.3465854981836	0.0	508.85050131398236	481.9942641076014	0.0	509.56260769239833	536.3021242348016	0.0	508.92771844175775	588.707596038411	0.0	512.279726548625	596.3307331292964	0.0	503.170711335755	597.8941132531781	0.0	509.9227005414367	599.1592289336161	0.0	524.7786534675273	389.9403562700284	0.0	527.3913692020368	365.6670316819335	0.0	526.7254372166296	380.3051059139293	0.0	550.0058136471365	402.62918643976246	0.0	563.4116754649804	443.3656995478015	0.0	569.3391717415518	474.6842686487271	0.0	498.72565489782636	401.122091414172	0.0	487.9304334112467	443.9174570685164	0.0	484.640420529197	479.54924091371765	0.0
658	26.335014261266398	520.7940324734169	478.38823552585495	0.0	533.1598061948433	481.5703736590249	0.0	530.0901741553032	538.1589120907845	0.0	531.3537618682246	596.5007394145475	0.0	526.1854264223563	614.9351950746128	0.0	538.392209123911	616.2666897504639	0.0	530.376856732616	607.8722250533625	0.0	508.3701149415864	481.3545710981883	0.0	509.79363277304384	535.5391351957757	0.0	509.0569594248472	588.6570823440325	0.0	512.0604565300403	596.953698780245	0.0	503.25903794095234	598.5558132495963	0.0	510.38631753276564	600.1604957261513	0.0	523.8273719009827	389.9178708123717	0.0	526.7794887897015	366.2140078659979	0.0	525.8568205971947	381.5293052443298	0.0	548.7954833707811	401.8813818234704	0.0	562.0728175999603	442.4789464842124	0.0	567.9419688485847	473.94218159518965	0.0	498.05627405917335	400.4674059168005	0.0	487.2718309759918	443.5335771348737	0.0	484.68985187973465	479.6075213843942	0.0
659	26.37503707929264	520.2367102477897	476.88249407490383	0.0	532.4012678437995	478.83932299532415	0.0	530.0760276385298	535.6641968578858	0.0	531.739964227406	590.9464665411422	0.0	526.2422090714405	615.6338458353033	0.0	538.5532289535324	615.3840578843768	0.0	530.4457004419394	601.9513041309141	0.0	507.62158490672914	478.61067559776035	0.0	509.8198103700027	534.1406021606701	0.0	508.9840700158076	588.7127312189581	0.0	511.38373377608843	597.3509617067617	0.0	502.67635298715754	599.5889482357848	0.0	510.55240202503563	600.3980384534224	0.0	523.0880643420196	389.9763500054432	0.0	526.7014977084847	365.2498609963958	0.0	525.292512191692	382.60270185917136	0.0	548.2506035146504	400.9808919565405	0.0	560.2968805252838	441.4837509642716	0.0	565.5479042090915	474.40017965624617	0.0	497.6045308028404	399.5677434546138	0.0	486.6414789949669	442.8889284848456	0.0	484.1945254113661	479.8713416226859	0.0
660	26.41505989731888	519.6755078995593	474.7869432959135	0.0	532.1405782225979	475.09465131859963	0.0	530.5968866328075	533.0874875972639	0.0	531.8051845314274	585.296486418122	0.0	526.2285585380346	613.337718922155	0.0	538.680201115727	611.9050413634154	0.0	530.2829849734529	595.9990137837641	0.0	506.67976271883117	474.77071798689803	0.0	509.5551299415708	532.6286808639552	0.0	508.97917122550564	589.1431078331074	0.0	511.0306761567538	597.3343205985268	0.0	502.32723486813603	600.2767586871869	0.0	510.5237898590486	600.1369057884326	0.0	522.8651433678774	390.10478100961194	0.0	527.2064839914214	363.5543977347117	0.0	526.8079142589852	383.0592585292774	0.0	548.4525592575162	400.1497726738001	0.0	558.7034223893139	441.4369816467906	0.0	562.564500057792	476.5775917237522	0.0	497.2568869142643	398.2350085960654	0.0	485.945144968155	441.8049497707767	0.0	483.1180567943679	479.52175991284395	0.0
661	26.45508271534512	519.1942377080526	473.25724928325496	0.0	532.2157927816017	472.6810783941511	0.0	531.4805504118318	531.7949222346713	0.0	531.8412794488875	581.7504126148808	0.0	526.2859898103886	608.4196327942677	0.0	538.6790973297293	606.6935962662844	0.0	530.2278835888433	592.8606738976171	0.0	506.1482287255665	472.67296361665444	0.0	509.1205760283314	532.1136810733974	0.0	509.0967084619164	589.6040672589713	0.0	511.64117680508724	597.2864978948373	0.0	502.66259251569966	600.3007804836296	0.0	510.5115478733349	600.2553632656851	0.0	523.6780779192001	389.85594252348244	0.0	528.4824576440196	363.2997592268026	0.0	530.9441570782878	382.7659273759786	0.0	548.7885103402642	399.3589575844426	0.0	557.8397183266068	442.69256958045594	0.0	560.0559302451618	479.79063751393215	0.0	497.2307993425915	396.28512466918374	0.0	485.1055914834159	440.40336966823617	0.0	482.05891823296463	478.4617729166417	0.0
662	26.495105533371362	518.9492713173299	472.69991491948645	0.0	532.2158561840057	472.33483639857263	0.0	532.2955361566242	531.3337958293391	0.0	532.1378370541543	580.6881446955431	0.0	526.9775792543427	604.1895311265647	0.0	538.8106283418955	602.8020805615066	0.0	530.4029923192196	592.452596738463	0.0	506.0562053662643	472.6934207803849	0.0	508.710096561313	532.1183262364898	0.0	509.0984689260549	589.8372453948855	0.0	512.7333769775103	597.4189132914116	0.0	502.919952818667	599.9226063622964	0.0	510.5474289445501	600.8111561380074	0.0	524.8699564435343	388.88238051459035	0.0	529.6253023138256	363.55352568478963	0.0	534.1291421104571	381.30817116823675	0.0	548.7768698178915	398.37009273961337	0.0	557.022508346248	444.1818520447906	0.0	558.1916906252623	482.5897375015336	0.0	497.3897529179321	394.2790667247921	0.0	484.0531119488642	438.80971320303735	0.0	481.06604761001256	477.0598001477519	0.0
663	26.535128351397603	518.9258817006496	472.2476586251265	0.0	532.0251526681191	472.66061385131223	0.0	532.6261606545427	530.0707785696388	0.0	532.6592115480245	581.1367358528253	0.0	528.6642190138904	602.1882940429917	0.0	539.4627065809934	601.4888495414845	0.0	531.0226799203208	592.8745909075692	0.0	506.059509267391	472.8982519914488	0.0	508.3922322721279	531.5042122726758	0.0	508.8539255017243	589.8190410058625	0.0	513.3508738722738	597.8310848198297	0.0	502.8017882162597	599.6313717364811	0.0	510.4064740060436	600.9480901987065	0.0	525.1123401684799	387.5677736995978	0.0	529.5858458542244	363.0495161908999	0.0	532.9700353098287	379.38282969971834	0.0	548.6219414473787	397.29774009286956	0.0	555.5494612961936	444.57887999386577	0.0	556.3019655463746	484.0378312567786	0.0	497.5324354524171	392.96668520836874	0.0	482.8074722252944	436.76535969235204	0.0	479.6447987773388	474.6950290922785	0.0
664	26.575151169423844	518.9417419092847	471.61438592793627	0.0	531.9289291376645	472.7002775999912	0.0	532.5144996345133	528.1856694949342	0.0	533.4452754006686	581.6634729735088	0.0	531.2838019934254	600.3922982827454	0.0	540.9057814939966	600.4857033925653	0.0	532.2828622945054	592.9940803621394	0.0	506.0885565659787	472.57008851528434	0.0	508.27465201172663	530.3816098987725	0.0	508.62860599053647	589.5501855991433	0.0	513.1933704607469	598.2209924015523	0.0	502.82978448929606	599.5939505555438	0.0	510.03158974146527	600.3213652318565	0.0	524.861268899776	386.59438545023426	0.0	528.8342798488602	362.43834678501753	0.0	529.76409646746	378.2166960865617	0.0	548.6813765961883	396.95862714864194	0.0	553.9718397314551	444.1434867527216	0.0	553.9094129990237	484.27314743282494	0.0	498.0384909618174	392.6284295118856	0.0	481.9506274779489	434.2581025978225	0.0	478.26861773775664	469.6379787407771	0.0
665	26.615173987450085	518.8455751797295	471.2971227165509	0.0	531.9821405881383	472.69988311863256	0.0	532.3628070456999	527.1658389571068	0.0	534.4918343476254	580.5796949225123	0.0	534.3683469455437	596.456353147608	0.0	542.7778049551388	596.8995666249727	0.0	533.7484816808103	591.7672303479136	0.0	506.15640782241445	472.3449537033421	0.0	508.5204654358252	529.5501832443821	0.0	508.7319909833198	589.3602549208146	0.0	512.958504781387	598.0376467369513	0.0	503.1343074248759	599.6090361017704	0.0	509.9567980116153	599.5750597670243	0.0	525.540285462668	386.3989945248091	0.0	528.2800670412608	362.5515197422874	0.0	529.1899204682644	378.3506318718993	0.0	549.0481542670234	397.7727962203401	0.0	553.0509997639231	444.1336510285725	0.0	551.4552132013296	484.0934675344484	0.0	498.9164050055793	393.0239034773741	0.0	482.0708043297069	431.61198615202954	0.0	477.93950830868556	461.9700660485177	0.0
666	26.655196805476322	518.7390468890075	471.3609929933156	0.0	531.9139905317915	473.4659437960613	0.0	532.3991350133774	527.1917821008541	0.0	535.2416938337872	577.7524973220125	0.0	537.2952526251341	590.55894156751	0.0	544.2273206873426	590.9594683479891	0.0	534.6223587280595	589.0466223425668	0.0	506.0787113261017	472.83343268354133	0.0	508.96133673335686	529.4729409868984	0.0	509.0771228062013	589.435547365962	0.0	513.0951088118526	597.5185847616625	0.0	503.42310400744765	599.4892601580725	0.0	510.33917951804216	599.472205706389	0.0	526.9643371518752	386.64105530619247	0.0	528.3264362711561	363.902662509106	0.0	531.7853454822471	379.5553721205232	0.0	549.725647271892	398.95066988259276	0.0	552.7803699674046	444.8636454149681	0.0	549.9369877926664	484.1590836007485	0.0	499.6804271897921	393.485491061181	0.0	483.07289027806513	429.20137904751743	0.0	478.6934717414182	455.0381955425812	0.0
667	26.695219623502563	518.7955046134774	471.6078111023797	0.0	531.6550538886735	475.29701932709247	0.0	532.5522208732586	527.2759284895727	0.0	535.1780629146882	575.5617588260691	0.0	539.6440124207724	584.659374999969	0.0	544.9328619950389	585.5794307496153	0.0	534.5380723948805	587.2285620312365	0.0	505.8572688608361	474.2045086882429	0.0	509.36255035757574	530.0170059177074	0.0	509.18118978040854	589.2707864178727	0.0	513.1467805458818	597.382620991213	0.0	503.4942022409412	599.2210265800176	0.0	510.23312270240535	600.0187400777949	0.0	528.1922010403924	386.53081750751556	0.0	529.2722542878762	366.03154058642576	0.0	534.6516591571514	380.9940511966311	0.0	550.6488511922993	399.70616585590454	0.0	552.8727360308246	445.83872440603346	0.0	549.6254149997882	484.64977349138934	0.0	500.5427542820851	393.58132909928185	0.0	484.39018176962855	427.69905690621124	0.0	480.04855904561686	451.0083369947067	0.0
668	26.735242441528804	519.0032206075701	472.3542210268339	0.0	531.4235843285436	477.08645574088143	0.0	532.6438291878571	526.8729706523486	0.0	534.6000197026674	575.4476314854309	0.0	540.4783935495199	581.4559911597179	0.0	544.7656467316873	583.171936997401	0.0	533.7347182918609	587.4283064391906	0.0	506.0104345287682	475.7183067301819	0.0	510.02222462017835	530.4419696144677	0.0	508.87078844614285	588.4388890830887	0.0	513.2461640460117	597.587568434057	0.0	503.560563150616	598.8861008773035	0.0	509.28647307040956	599.8550744246531	0.0	529.1662379626109	386.7958562776048	0.0	530.6111073161076	367.53535558151566	0.0	536.1121975415609	382.04277378670406	0.0	551.4875808451512	400.5586734900071	0.0	552.9753323369141	446.85137891843635	0.0	549.936308006101	485.51373510956046	0.0	501.7966770753445	394.0365615607026	0.0	485.2756621356438	427.44875120080053	0.0	481.6587496349274	448.7178257375503	0.0
669	26.775265259555045	519.4733666161129	473.4941943995009	0.0	531.6276785986657	477.70453923258776	0.0	532.6052178698732	526.2463918405564	0.0	534.1605912323146	575.996816420185	0.0	538.7024915157047	582.6086471781123	0.0	543.3860804686328	583.895474272602	0.0	532.9101958682086	587.5783838125066	0.0	506.94855065651535	476.25141029522104	0.0	511.24733214034603	530.0103865635564	0.0	508.57317281569624	586.7778700415738	0.0	513.8556961704284	597.854816390512	0.0	504.15065885260054	598.6080668643148	0.0	508.34002801951664	597.6503392153323	0.0	530.0069167929505	388.3658807816771	0.0	531.2317998579276	367.67565387901146	0.0	536.711679976201	382.38659533089066	0.0	551.9792597673453	402.03434873898505	0.0	552.8757261959482	447.64648653208275	0.0	550.5720333101547	486.30345054295145	0.0	502.8518311441844	395.44165970044367	0.0	485.48815023024645	428.03578654040166	0.0	482.9976923881778	447.6330380963431	0.0
